# xmcd
#
# Track frame offsets: 
#        150
#        18858
#        31950
#        42644
#        61944
#        79856
#        94651
#        113260
#        130004
#        142480
#        155453
#        176126
#        186881
#
# Disc length: 3514 seconds
#
# Revision: 0
# Processed by: cddbd v1.5PL3 Copyright (c) Steve Scherf et al.
# Submitted via: ExactAudioCopy v0.95a4
#
DISCID=aa0db80d
DTITLE=T-99 - Strange Things Happen
DYEAR=2004
DGENRE=
TTITLE0=Hungy wolf
TTITLE1=I just don't know
TTITLE2=Sayonara
TTITLE3=Red dirt river
TTITLE4=Lost reasons blues
TTITLE5=I wish I had a ship
TTITLE6=George, Mo and Andre
TTITLE7=Tell that woman
TTITLE8=Countryside bound
TTITLE9=Now I've got a woman
TTITLE10=Strange things are happening
TTITLE11=Dragracin'
TTITLE12=Last fair deal gone down
EXTD=
EXTT0=
EXTT1=
EXTT2=
EXTT3=
EXTT4=
EXTT5=
EXTT6=
EXTT7=
EXTT8=
EXTT9=
EXTT10=
EXTT11=
EXTT12=
PLAYORDER=
